<svg width="800" height="244" viewBox="0 0 800 244" fill="none" xmlns="http://www.w3.org/2000/svg">
<path d="M779.349 28.5866L777.519 26.1652C767.4 12.8049 753.107 5.45527 733.84 3.71757C672.724 -1.83736 626.758 23.8863 586.223 46.5903C578.934 50.6639 571.93 54.5096 565.041 58.2414C515.359 84.5917 468.621 106.299 399.93 105.871H397.071C329.552 105.871 283.329 84.3068 234.133 58.2414C227.129 54.5096 220.24 50.6354 212.922 46.5617C172.387 23.7723 126.421 -1.86586 65.3337 3.8315C46.0669 5.5692 31.774 12.9188 21.6547 26.2791L19.8252 28.7005L20.2826 31.5492C23.1411 50.493 22.5694 71.4307 21.912 91.7418C21.5403 103.421 21.1973 114.531 21.4832 124.986L21.6547 130.911L27.5433 131.823C32.7174 132.62 37.5769 130 42.265 127.493C44.8351 125.94 47.6046 124.743 50.4977 123.932C56.2533 123.277 62.065 123.277 67.8207 123.932C92.433 126.353 120.133 139.771 146.374 153.302L152.406 156.407C220.754 191.645 297.993 228.621 386.809 240.187L408.248 240.728C498.722 229.874 577.362 192.3 646.768 156.378L652.771 153.302C679.013 139.771 706.684 126.353 731.325 123.932C737.081 123.292 742.891 123.292 748.647 123.932C751.541 124.743 754.31 125.94 756.88 127.493C761.568 130 766.428 132.62 771.602 131.823L777.49 130.911L777.662 124.986C777.948 114.417 777.662 103.421 777.233 91.7418C776.576 71.4877 775.89 50.493 778.863 31.5492L779.349 28.5866Z" fill="white"/>
<path fill-rule="evenodd" clip-rule="evenodd" d="M36.4902 136.296C39.7204 155.866 66.0765 155.923 84.1427 163.814C101.094 171.22 118.446 181.875 127.907 193.924C135.483 203.496 149.776 232.866 125.335 235.857C166.212 243.178 146.431 186.318 149.804 158.572C124.22 146.152 67.077 110.743 36.4902 136.296Z" fill="white"/>
<path fill-rule="evenodd" clip-rule="evenodd" d="M37.777 157.148C32.7459 178.684 18.8532 191.19 12.0498 210.874C45.2379 178.513 91.3753 228.593 129.251 225.288C122.762 178.2 73.3091 174.838 37.777 157.148Z" fill="white"/>
<path fill-rule="evenodd" clip-rule="evenodd" d="M762.74 136.296C759.51 155.866 733.125 155.923 715.088 163.814C698.108 171.22 680.785 181.875 671.323 193.924C663.748 203.496 649.426 232.866 673.896 235.857C633.018 243.178 652.799 186.318 649.426 158.572C675.096 146.152 732.239 110.743 762.74 136.296Z" fill="white"/>
<path fill-rule="evenodd" clip-rule="evenodd" d="M761.54 157.148C766.571 178.684 780.464 191.19 787.267 210.874C754.079 178.513 707.97 228.593 670.065 225.288C676.554 178.2 726.008 174.838 761.54 157.148Z" fill="white"/>
<path fill-rule="evenodd" clip-rule="evenodd" d="M799.902 217.397C796.529 191.759 773.832 179.14 771.86 155.951C771.088 146.978 778.406 137.464 779.578 127.123C781.007 114.674 778.634 96.5564 778.291 77.3563C778.006 61.2612 784.009 42.3175 780.864 28.9287C778.634 19.1577 762.312 9.13035 752.536 5.34161C722.092 -6.48043 681.557 3.66087 653.4 13.204C565.871 42.8872 512.472 103.878 399.759 103.593C287.045 103.878 233.647 42.8872 146.117 13.204C117.961 3.66087 77.5117 -6.48043 46.9821 5.34161C37.2058 9.13035 20.8833 19.1577 18.6536 28.9287C15.5663 42.3745 21.5122 61.3182 21.2263 77.3563C20.8833 96.5564 18.5107 114.674 19.9114 127.123C21.112 137.464 28.4871 147.064 27.6581 155.951C25.8 177.772 5.58992 190.364 0.387312 212.925C-0.0811658 214.993 -0.125139 217.134 0.258033 219.22C0.641204 221.305 1.44361 223.292 2.617 225.06C3.19615 225.895 3.98349 226.565 4.90144 227.004C5.81939 227.443 6.83627 227.636 7.85189 227.564C8.8675 227.492 9.8468 227.158 10.6933 226.594C11.5398 226.03 12.2242 225.256 12.6792 224.348C15.6164 218.467 20.4335 213.727 26.3718 210.874C67.5352 195.064 107.098 254.459 142.258 242.21C169.701 232.723 155.494 190.762 157.695 163.614C226.3 196.716 301.024 235.059 398.415 243.378H402.56H402.96C499.495 234.831 573.617 196.659 641.937 163.757C644.138 190.905 629.903 232.866 657.374 242.352C692.534 254.487 732.068 195.092 773.26 211.016C778.446 213.493 782.767 217.462 785.667 222.411C786.349 223.524 787.303 224.446 788.439 225.094C789.574 225.742 790.856 226.093 792.164 226.116C793.472 226.138 794.766 225.832 795.923 225.224C797.081 224.616 798.066 223.727 798.787 222.639C799.805 221.093 800.203 219.222 799.902 217.397ZM12.0789 210.959C18.8823 191.275 32.775 178.769 37.8061 157.233C73.3382 174.838 122.792 178.2 129.28 225.374C91.3758 228.678 45.2384 178.598 12.0503 210.959H12.0789ZM125.278 235.857C149.719 233.008 135.426 203.496 127.851 193.924C118.304 181.874 101.038 171.135 84.0864 163.814C66.0202 155.923 39.6641 155.866 36.4339 136.296C67.0207 110.657 124.164 146.152 149.748 158.572C146.432 186.318 166.213 243.178 125.278 235.857ZM402.246 236.883C401.837 236.912 401.426 236.912 401.017 236.883H397.786H396.672C302.882 226.827 222.298 184.182 149.748 146.807C124.821 133.96 95.2348 119.317 68.6215 116.668C62.2104 115.941 55.7372 115.941 49.3261 116.668C41.8367 118.007 33.947 125.214 28.7158 124.53C27.8868 95.5594 32.2033 60.6915 27.4294 30.2106C36.5483 18.1892 49.126 12.093 66.0488 10.5832C135.226 4.28758 183.25 39.07 230.874 64.2808C280.671 90.6881 327.866 112.879 397.786 112.708H401.817C471.509 112.708 518.647 90.6596 568.329 64.2808C616.067 38.9275 663.977 4.28758 733.154 10.5832C750.077 12.093 762.655 18.1892 771.774 30.2106C767 60.6915 771.316 95.5594 770.487 124.53C765.256 125.328 757.367 118.007 749.877 116.668C743.466 115.941 736.993 115.941 730.582 116.668C703.94 119.317 674.382 133.96 649.455 146.807C576.933 184.21 496.236 226.884 402.303 236.911L402.246 236.883ZM649.455 158.572C675.04 146.152 732.154 110.743 762.769 136.296C759.539 155.866 733.154 155.923 715.117 163.814C698.137 171.22 680.814 181.874 671.352 193.924C663.777 203.496 649.455 232.866 673.925 235.857C633.104 243.178 652.886 186.318 649.513 158.572H649.455ZM670.123 225.516C676.555 178.342 726.008 174.981 761.597 157.376C766.628 178.912 780.521 191.418 787.325 211.102C754.165 178.598 707.97 228.678 670.123 225.516Z" fill="black"/>
<path d="M141.486 50.5499C141.445 51.0244 141.219 51.464 140.857 51.7748C140.518 52.1055 140.073 52.3071 139.6 52.3446C138.313 52.3446 137.055 52.5725 135.798 52.6294C134.522 52.6999 133.243 52.6999 131.967 52.6294C130.652 57.928 129.423 62.5998 128.251 66.7019C127.079 70.804 125.936 74.4219 124.792 77.6124C123.649 80.8029 122.591 83.6801 121.505 86.1585C120.419 88.6368 119.304 90.9727 118.16 93.0807C117.017 95.1888 115.845 97.2398 114.616 99.1484C113.386 101.057 112.1 103.023 110.728 105.045C110.525 105.313 110.26 105.528 109.956 105.672C109.641 105.839 109.282 105.908 108.927 105.871C108.576 105.852 108.235 105.745 107.935 105.561C107.636 105.377 107.387 105.121 107.212 104.817C105.868 102.311 104.668 99.8321 103.639 97.3538C102.61 94.8754 101.695 92.5395 100.78 90.2606C99.8654 87.9816 99.3223 85.8736 98.7506 83.851C98.1789 81.8285 97.7215 80.0623 97.3499 78.467C95.2917 82.797 93.2049 86.8137 91.0896 90.5739C88.9921 94.3042 86.6923 97.9178 84.2004 101.399C83.9902 101.693 83.7167 101.936 83.4 102.111C83.0666 102.286 82.6878 102.355 82.3138 102.31C81.9539 102.28 81.61 102.149 81.3217 101.932C81.0334 101.716 80.8125 101.422 80.6844 101.086C78.8698 97.2745 77.2945 93.3547 75.9677 89.349C74.6814 85.3893 73.5951 81.5721 72.7375 77.9542C71.88 74.3364 71.1939 70.6616 70.6794 67.2717C70.1648 63.8817 69.7932 60.8051 69.5359 58.0134C69.2787 55.2217 69.1071 52.7719 69.05 50.6923C68.9928 48.6128 69.05 47.046 69.05 45.9065L67.1633 45.5362L65.3338 45.1944C64.8409 45.0561 64.4128 44.7488 64.1252 44.3266C63.8375 43.9044 63.7088 43.3945 63.7616 42.8869C63.8707 42.3422 64.1757 41.856 64.6192 41.5196C65.0194 41.2181 65.5223 41.0851 66.0199 41.1492H66.1914C69.1754 41.7877 72.1904 42.2726 75.2245 42.602C77.7115 42.8869 80.1984 43.0578 82.6854 43.1433C85.1723 43.2288 87.6307 43.1433 90.0033 43.1433H90.3178C90.5926 43.1652 90.8597 43.2451 91.1012 43.3777C91.3427 43.5103 91.5531 43.6926 91.7185 43.9125C91.8834 44.1083 92.0065 44.3357 92.0802 44.5806C92.1539 44.8255 92.1767 45.0828 92.1473 45.3368C92.105 45.8354 91.8814 46.3015 91.5184 46.6472C91.1526 46.99 90.6763 47.192 90.1748 47.2169H86.6016C85.401 47.2169 84.1718 47.2169 82.9141 47.2169C82.9141 48.1855 82.9141 49.4674 82.9141 51.0626C82.9141 52.6294 82.9141 54.4526 83.1999 56.4467C83.4858 58.4407 83.5429 60.6627 83.8288 63.0272C84.1147 65.3916 84.4577 67.8414 84.9436 70.4052C85.4296 72.969 85.9727 75.5329 86.6302 78.1821C87.2877 80.8314 88.0881 83.4522 89.0028 86.016C90.5465 83.3098 91.8614 80.5181 93.405 77.6694C94.9487 74.8207 96.0921 71.972 97.2355 69.1233C98.3789 66.2746 99.4366 63.426 100.351 60.3494C101.251 57.4244 101.967 54.4465 102.495 51.433C102.597 50.9458 102.871 50.5112 103.267 50.2081C103.645 49.9 104.122 49.7381 104.611 49.7523C105.113 49.7862 105.584 50.0104 105.926 50.379C106.287 50.7176 106.519 51.1707 106.583 51.6609C106.783 54.709 107.126 57.7571 107.555 60.8337C107.984 63.9102 108.584 67.0153 109.299 70.2058C110.013 73.3963 110.842 76.6154 111.814 79.8914C112.786 83.1673 113.901 86.5857 115.13 90.0611C116.131 88.1525 117.131 86.0445 117.989 83.7086C118.846 81.3727 119.961 78.7519 120.847 75.7323C121.733 72.7127 122.934 69.3227 124.049 65.5055C125.164 61.6883 126.307 57.3013 127.536 52.3731C126.364 52.2021 125.221 52.0027 124.078 51.7463C122.934 51.49 121.791 51.2051 120.59 50.8633C120.134 50.7413 119.737 50.4577 119.475 50.0656C119.194 49.6789 119.072 49.2002 119.132 48.7267C119.152 48.4309 119.239 48.1435 119.388 47.8866C119.537 47.6298 119.743 47.4105 119.99 47.2454C120.407 46.9812 120.896 46.8518 121.39 46.8751H121.762C124.294 47.6142 126.886 48.129 129.509 48.4134C131.046 48.5934 132.592 48.6885 134.14 48.6982C135.706 48.7113 137.272 48.6257 138.828 48.4419H139.571C140.117 48.5168 140.616 48.7908 140.972 49.211C141.309 49.5753 141.493 50.0545 141.486 50.5499Z" fill="black" stroke="black" stroke-width="0.5" stroke-miterlimit="10"/>
<path d="M212.693 78.7809C212.52 79.3577 212.144 79.8531 211.635 80.1767C211.233 80.4248 210.764 80.5441 210.292 80.5186C208.862 80.2338 207.433 79.9488 206.175 79.6355C204.917 79.3221 203.602 78.9518 202.316 78.553C201.773 79.607 200.858 81.4017 199.658 83.7091C198.457 86.0166 196.971 89.0931 195.313 92.654C193.655 96.2148 191.797 100.231 189.767 104.761C187.737 109.29 185.708 114.247 183.592 119.546L182.163 122.964C183.364 123.448 184.564 123.961 185.736 124.502C186.908 125.043 188.08 125.613 189.31 126.24C189.781 126.507 190.13 126.946 190.282 127.465C190.451 127.964 190.451 128.504 190.282 129.003C190.167 129.236 190.006 129.445 189.81 129.616C189.614 129.787 189.385 129.918 189.138 130C188.667 130.17 188.151 130.17 187.68 130C186.337 129.345 185.022 128.69 183.707 128.092C182.392 127.493 181.106 126.952 179.791 126.411C178.476 125.87 177.189 125.414 175.874 124.987L171.987 123.79H171.729C171.466 123.696 171.227 123.546 171.029 123.349C170.831 123.152 170.68 122.913 170.586 122.651C170.48 122.413 170.425 122.156 170.425 121.896C170.425 121.636 170.48 121.378 170.586 121.141C170.767 120.672 171.127 120.293 171.586 120.087C171.805 119.961 172.047 119.881 172.298 119.852C172.548 119.822 172.802 119.844 173.044 119.916L175.903 120.799L178.761 121.711L180.191 118.15C182.278 112.88 184.336 107.951 186.337 103.422C184.25 102.824 182.22 102.169 180.219 101.456C178.218 100.744 176.189 99.9751 174.216 99.1774C172.244 98.3798 170.243 97.5822 168.499 96.7276C166.755 95.873 164.754 95.0184 162.982 94.0783L155.235 112.224L158.094 113.563L160.953 114.931C161.396 115.169 161.733 115.566 161.896 116.042C161.995 116.276 162.046 116.528 162.046 116.782C162.046 117.037 161.995 117.289 161.896 117.523C161.795 117.783 161.638 118.018 161.435 118.21C161.233 118.402 160.99 118.547 160.724 118.634C160.234 118.805 159.699 118.805 159.209 118.634H159.066C157.208 117.665 155.35 116.754 153.349 115.785C151.348 114.817 149.547 114.105 147.632 113.335C145.716 112.566 143.801 111.883 141.914 111.227C140.028 110.572 138.055 110.002 136.197 109.461C135.932 109.364 135.691 109.213 135.489 109.016C135.287 108.82 135.129 108.583 135.025 108.322C134.925 108.082 134.874 107.826 134.874 107.567C134.874 107.308 134.925 107.051 135.025 106.812C135.193 106.338 135.543 105.949 135.997 105.729C136.458 105.504 136.983 105.443 137.484 105.559L140.342 106.413L143.201 107.268L162.296 61.9452C160.266 60.9767 158.266 59.9226 156.236 58.7832C156.017 58.6681 155.823 58.5105 155.666 58.3197C155.509 58.1289 155.392 57.9088 155.321 57.6722C155.148 57.1659 155.183 56.612 155.419 56.1315C155.655 55.6511 156.072 55.2831 156.579 55.1083C157.05 54.9362 157.566 54.9362 158.037 55.1083H158.265C160.667 56.5042 163.096 57.7861 165.526 58.9256C167.956 60.0651 170.414 61.1476 172.873 62.1161C174.388 62.7143 175.731 63.2841 177.332 63.7968C178.933 64.3096 180.191 64.8224 181.82 65.2497C182.294 65.4367 182.681 65.7919 182.906 66.2467C183.028 66.4666 183.103 66.7087 183.128 66.9585C183.152 67.2082 183.126 67.4604 183.049 67.6996C182.964 67.9715 182.824 68.2231 182.637 68.4387C182.45 68.6543 182.221 68.8293 181.963 68.9529C181.475 69.1367 180.936 69.1367 180.448 68.9529L177.589 68.0984C176.675 67.8135 175.731 67.5286 174.731 67.1868L164.897 89.9762C166.613 90.8878 168.413 91.7994 170.329 92.6255C172.244 93.4516 174.159 94.3062 176.046 95.0754C177.932 95.8445 180.105 96.6422 182.135 97.3828C184.164 98.1235 186.194 98.7502 188.281 99.3484C189.51 96.4997 190.71 93.9644 191.825 91.6C192.94 89.2356 193.998 87.0706 194.941 85.1619L197.428 80.2337L199.143 76.9578C198.171 76.5305 197.256 76.1031 196.285 75.6474C195.374 75.2082 194.487 74.7234 193.626 74.1945C193.213 73.9482 192.899 73.5651 192.74 73.112C192.569 72.6624 192.569 72.1658 192.74 71.7162C192.84 71.4445 192.999 71.1986 193.207 70.9965C193.415 70.7944 193.666 70.6412 193.941 70.5482C194.411 70.3761 194.928 70.3761 195.398 70.5482H195.684C196.599 71.118 197.552 71.6307 198.543 72.0865C199.486 72.5423 200.458 72.9696 201.401 73.3684C202.976 74.0022 204.59 74.535 206.232 74.9637C208.004 75.4149 209.798 75.7762 211.606 76.0462L212.035 76.2171C212.468 76.3889 212.83 76.6997 213.064 77.1002C213.154 77.6869 213.022 78.286 212.693 78.7809Z" fill="black" stroke="black" stroke-width="0.5" stroke-miterlimit="10"/>
<path d="M247.683 99.519C247.443 99.9611 247.045 100.297 246.568 100.459C246.08 100.643 245.541 100.643 245.053 100.459L242.366 99.3481L239.65 98.1231L216.21 140.056L218.783 141.679L221.413 143.303C221.855 143.615 222.163 144.081 222.275 144.61C222.386 145.138 222.293 145.689 222.013 146.152C221.879 146.375 221.701 146.568 221.49 146.72C221.278 146.872 221.038 146.979 220.784 147.035C220.286 147.133 219.769 147.053 219.326 146.807H219.183C217.439 145.668 215.667 144.557 213.894 143.503C212.122 142.449 210.293 141.452 208.435 140.483C206.577 139.514 204.776 138.631 202.946 137.805C201.117 136.979 199.23 136.153 197.229 135.412C196.975 135.299 196.751 135.13 196.573 134.918C196.394 134.706 196.267 134.456 196.2 134.187C196.101 133.953 196.05 133.701 196.05 133.447C196.05 133.192 196.101 132.941 196.2 132.706C196.438 132.257 196.836 131.912 197.315 131.738C197.795 131.566 198.321 131.566 198.801 131.738L201.488 132.877L204.175 134.017L227.501 91.5142C225.615 90.3462 223.699 89.0928 221.784 87.7539C221.377 87.4682 221.092 87.0416 220.984 86.5575C220.864 86.0362 220.956 85.4889 221.24 85.0351C221.524 84.5814 221.976 84.2581 222.499 84.1361C222.991 84.04 223.501 84.0997 223.957 84.307H224.157C226.425 85.9402 228.711 87.4501 231.017 88.8364C233.304 90.2038 235.62 91.5142 237.992 92.7391C239.422 93.5082 240.851 94.2204 242.252 94.8756C243.652 95.5308 245.11 96.186 246.539 96.7842H246.682C246.937 96.9035 247.161 97.078 247.339 97.2949C247.517 97.5117 247.644 97.7655 247.711 98.0376C247.887 98.5177 247.877 99.046 247.683 99.519Z" fill="black" stroke="black" stroke-width="0.5" stroke-miterlimit="10"/>
<path d="M290.846 137.349C290.835 137.444 290.835 137.54 290.846 137.634C290.858 137.748 290.858 137.862 290.846 137.976C290.565 138.45 290.114 138.802 289.585 138.96C289.055 139.118 288.485 139.072 287.988 138.831C287.618 138.654 287.324 138.351 287.159 137.976C286.962 137.569 286.892 137.113 286.959 136.666C287.13 135.64 287.33 134.558 287.559 133.418C287.816 132.279 288.074 131.168 288.359 130.085C288.645 129.003 288.931 127.977 289.188 127.037C289.446 126.097 289.703 125.3 289.932 124.644C288.56 124.018 287.073 123.305 285.329 122.451C283.586 121.596 281.813 120.685 279.869 119.602L256.2 161.706C258.059 162.76 259.831 163.871 261.46 164.982C261.912 165.244 262.241 165.674 262.375 166.178C262.478 166.662 262.407 167.166 262.175 167.602C262.047 167.859 261.867 168.085 261.645 168.267C261.423 168.449 261.166 168.581 260.888 168.656C260.418 168.831 259.901 168.831 259.431 168.656H259.231C257.487 167.46 255.714 166.321 253.914 165.295C252.113 164.269 250.34 163.272 248.511 162.446C246.681 161.62 244.823 160.595 243.022 159.598C241.221 158.601 239.335 157.974 237.305 157.29H237.105C236.859 157.168 236.644 156.991 236.475 156.774C236.307 156.557 236.19 156.305 236.133 156.037C235.928 155.535 235.928 154.972 236.133 154.47C236.361 154.03 236.75 153.693 237.219 153.53C237.688 153.344 238.209 153.344 238.677 153.53C240.564 154.242 242.394 155.011 244.137 155.837L267.377 113.421C265.462 112.31 263.661 111.284 262.003 110.287L257.544 107.438L255.829 109.432C255.171 110.23 254.457 111.085 253.685 111.968L251.312 114.674C250.512 115.586 249.74 116.44 248.968 117.209C248.661 117.53 248.261 117.749 247.825 117.836C247.467 117.875 247.105 117.82 246.776 117.676C246.446 117.533 246.16 117.305 245.946 117.017C245.732 116.729 245.597 116.39 245.556 116.034C245.514 115.678 245.567 115.317 245.709 114.987V114.731C245.76 114.642 245.828 114.565 245.91 114.503C246.91 113.477 247.968 112.31 249.054 111.056L252.141 107.467L254.514 104.618C255.143 103.849 255.486 103.479 255.486 103.45C255.783 103.086 256.197 102.835 256.658 102.738C257.115 102.649 257.59 102.719 258.001 102.937L258.259 103.08C259.373 103.877 260.774 104.761 262.432 105.786C264.09 106.812 265.891 107.866 267.863 108.977C269.836 110.088 271.865 111.256 273.981 112.395C276.096 113.534 278.183 114.674 280.241 115.756C282.757 117.067 285.101 118.235 287.245 119.289C289.389 120.343 291.247 121.169 292.733 121.824H292.876C293.286 122.056 293.607 122.417 293.791 122.85C293.96 123.29 293.96 123.777 293.791 124.217L293.591 124.872L293.105 126.496C292.876 127.18 292.647 127.977 292.419 128.86C292.19 129.743 291.904 130.684 291.675 131.709C291.447 132.735 291.189 133.675 290.961 134.558C290.732 135.441 291.075 136.438 290.846 137.349Z" fill="black" stroke="black" stroke-width="0.5" stroke-miterlimit="10"/>
<path d="M323.863 192.928C323.635 193.368 323.247 193.704 322.777 193.868C322.306 194.037 321.79 194.037 321.319 193.868C314.888 191.019 308.541 188.484 302.281 186.205C296.021 183.926 289.703 181.875 283.643 180.194H283.443C282.935 179.985 282.519 179.601 282.271 179.111C282.158 178.866 282.1 178.598 282.1 178.328C282.1 178.058 282.158 177.79 282.271 177.545C282.35 177.311 282.478 177.097 282.645 176.915C282.813 176.734 283.016 176.589 283.243 176.491C283.713 176.258 284.253 176.207 284.758 176.348L287.188 177.032L289.589 177.773L305.883 133.162C305.138 132.817 304.375 132.512 303.596 132.251L301.252 131.396C300.773 131.175 300.388 130.791 300.166 130.314C300.053 130.073 299.995 129.81 299.995 129.544C299.995 129.279 300.053 129.016 300.166 128.775C300.252 128.514 300.393 128.275 300.581 128.073C300.768 127.871 300.997 127.713 301.252 127.607C301.496 127.502 301.758 127.448 302.024 127.448C302.289 127.448 302.552 127.502 302.796 127.607C303.711 127.978 304.597 128.348 305.483 128.661L308.056 129.601C313.296 131.5 318.527 133.2 323.749 134.7C328.971 136.201 334.259 137.54 339.614 138.717L339.957 138.86C340.19 138.934 340.404 139.056 340.586 139.218C340.768 139.38 340.914 139.578 341.015 139.8C341.242 140.217 341.322 140.699 341.244 141.167L338.385 154.128V154.385C338.297 154.638 338.154 154.869 337.966 155.061C337.779 155.253 337.551 155.402 337.299 155.496C336.801 155.682 336.253 155.682 335.755 155.496C335.309 155.336 334.934 155.023 334.697 154.613C334.466 154.166 334.386 153.656 334.469 153.16L336.956 142.249C334.097 141.623 331.01 140.882 328.066 140.084C325.121 139.287 322.205 138.432 319.261 137.521L310.428 161.649L312.829 162.39L316.088 163.33L319.69 164.241C320.948 164.526 322.091 164.783 323.206 164.953L323.578 165.096C323.83 165.185 324.062 165.324 324.258 165.506C324.455 165.687 324.612 165.906 324.721 166.15C324.826 166.388 324.88 166.645 324.88 166.905C324.88 167.165 324.826 167.422 324.721 167.66C324.566 168.115 324.252 168.5 323.835 168.742C323.409 168.98 322.919 169.08 322.434 169.027C321.234 168.828 319.947 168.571 318.604 168.258L314.745 167.261L311.343 166.235L308.913 165.495L302.51 181.989L303.539 182.359C306.398 183.413 309.256 184.524 312.286 185.663C315.316 186.803 318.146 188.028 321.062 189.31L325.95 179.966C326.222 179.551 326.609 179.224 327.065 179.026C327.516 178.855 328.015 178.855 328.466 179.026C328.741 179.11 328.992 179.257 329.201 179.455C329.409 179.653 329.568 179.896 329.666 180.165C329.835 180.625 329.835 181.13 329.666 181.59V181.903L323.863 192.928Z" fill="black" stroke="black" stroke-width="0.5" stroke-miterlimit="10"/>
<path d="M369.429 185.179C368.469 185.065 367.515 184.904 366.571 184.694C365.675 184.506 364.796 184.249 363.941 183.925L362.168 196.118L365.027 196.716L368.086 197.314C368.575 197.448 369 197.751 369.286 198.169C369.589 198.568 369.722 199.069 369.658 199.565C369.633 199.84 369.545 200.107 369.402 200.344C369.258 200.58 369.062 200.782 368.829 200.932C368.403 201.224 367.886 201.356 367.371 201.302H367.199C365.17 200.846 363.112 200.448 361.082 200.106C359.053 199.764 356.966 199.479 354.908 199.223C352.849 198.966 350.82 198.795 348.819 198.653C346.818 198.511 344.76 198.425 342.73 198.397H342.53C342.259 198.374 341.996 198.294 341.76 198.161C341.523 198.029 341.317 197.847 341.158 197.627C340.983 197.437 340.852 197.211 340.773 196.965C340.694 196.719 340.669 196.459 340.7 196.203C340.763 195.694 341.009 195.226 341.393 194.885C341.777 194.544 342.273 194.355 342.787 194.351H345.646H348.504L355.136 146.465C353.679 146.499 352.227 146.642 350.791 146.892L349.276 147.177C349.021 147.225 348.759 147.225 348.504 147.177C348.228 147.15 347.962 147.062 347.724 146.919C347.487 146.776 347.285 146.582 347.132 146.351C346.805 145.919 346.652 145.38 346.703 144.841C346.758 144.447 346.916 144.074 347.161 143.759C347.433 143.432 347.804 143.203 348.219 143.104L349.705 142.819C350.62 142.648 351.935 142.505 353.65 142.363C355.365 142.221 357.452 142.192 359.967 142.192C362.483 142.192 365.399 142.449 368.715 142.819L370.487 143.047C371.087 143.047 371.687 143.218 372.288 143.332C374.5 143.668 376.687 144.153 378.834 144.784C380.913 145.371 382.925 146.173 384.837 147.177C386.656 148.1 388.364 149.228 389.925 150.539C391.425 151.792 392.717 153.273 393.756 154.926C394.802 156.618 395.547 158.478 395.957 160.424C396.421 162.605 396.508 164.85 396.214 167.061C395.975 169.188 395.376 171.259 394.442 173.186C393.571 174.96 392.423 176.585 391.04 178C389.673 179.387 388.125 180.584 386.438 181.561C384.712 182.542 382.88 183.325 380.978 183.897C379.06 184.471 377.086 184.834 375.089 184.979C373.214 185.232 371.318 185.299 369.429 185.179ZM392.298 166.833C392.564 164.933 392.467 163 392.012 161.136C391.609 159.513 390.912 157.978 389.954 156.606C389.022 155.25 387.861 154.065 386.523 153.103C385.143 152.076 383.658 151.198 382.093 150.482C380.464 149.756 378.782 149.156 377.062 148.687C375.318 148.231 373.603 147.861 371.888 147.576L369.172 147.263L364.427 179.937C365.227 180.222 366.056 180.478 366.971 180.706C367.886 180.934 368.886 181.077 369.829 181.219C372.457 181.576 375.12 181.576 377.748 181.219C380.168 180.833 382.5 180.023 384.637 178.826C386.667 177.675 388.408 176.077 389.725 174.154C391.188 171.967 392.082 169.451 392.326 166.833H392.298Z" fill="black" stroke="black" stroke-width="0.5" stroke-miterlimit="10"/>
<path d="M446.982 200.049H446.81H446.582C444.466 199.878 442.437 199.764 440.522 199.764C438.606 199.764 436.72 199.764 434.804 200.021C432.889 200.277 431.088 200.505 429.23 200.875C427.372 201.245 425.428 201.73 423.37 202.328C423.251 202.377 423.117 202.377 422.998 202.328C422.724 202.36 422.445 202.331 422.183 202.242C421.921 202.154 421.682 202.008 421.483 201.815C421.065 201.474 420.798 200.983 420.74 200.448C420.681 199.983 420.804 199.514 421.083 199.137C421.201 198.93 421.361 198.749 421.553 198.607C421.745 198.465 421.965 198.364 422.198 198.311L424.885 197.599C425.781 197.371 426.667 197.172 427.544 197.001L426.257 183.982L425.257 184.125H424.285C420.998 184.467 417.71 184.695 414.451 184.809C411.193 184.923 407.905 184.809 404.561 184.809C404.054 184.793 403.569 184.602 403.189 184.267C402.998 184.115 402.842 183.925 402.728 183.709C402.615 183.493 402.548 183.257 402.531 183.014C402.503 182.796 402.503 182.576 402.531 182.359C402.582 182.146 402.669 181.944 402.788 181.76C404.253 179.292 405.497 176.699 406.505 174.012C407.368 171.685 408.046 169.295 408.534 166.862C408.938 164.785 409.177 162.68 409.249 160.566C409.284 158.827 409.227 157.087 409.077 155.353C409.077 154.271 408.849 153.302 408.677 152.505C408.506 151.707 408.363 150.938 408.22 150.34C408.077 149.741 407.877 149.058 407.705 148.545C407.674 148.443 407.674 148.334 407.705 148.231C407.705 148.231 407.705 148.061 407.705 147.975C407.669 147.701 407.69 147.422 407.769 147.157C407.848 146.892 407.982 146.647 408.162 146.437C408.337 146.231 408.55 146.062 408.791 145.94C409.031 145.818 409.294 145.745 409.563 145.725C410.004 145.681 410.447 145.786 410.82 146.024C411.194 146.262 411.476 146.618 411.621 147.035C411.712 147.258 411.788 147.486 411.85 147.719C411.993 148.146 412.136 148.687 412.307 149.371C412.479 150.055 412.679 150.881 412.851 151.849C413.063 152.913 413.216 153.988 413.308 155.068C413.482 156.791 413.549 158.522 413.508 160.253C413.476 162.306 413.285 164.354 412.936 166.378C412.548 168.721 411.994 171.034 411.278 173.3C410.433 175.886 409.382 178.401 408.134 180.82C413.394 180.82 418.682 180.479 423.97 179.966L425.971 179.766L423.113 149.998C423.035 149.699 423.035 149.385 423.113 149.086C423.215 148.852 423.36 148.639 423.542 148.459C423.676 148.304 423.842 148.178 424.028 148.089L424.399 147.861L425.2 147.605C425.686 147.405 426.343 147.121 427.143 146.722C427.944 146.323 428.859 145.839 430.002 145.24C431.091 144.585 432.123 143.842 433.089 143.018C433.248 142.872 433.432 142.757 433.632 142.677C433.977 142.494 434.37 142.427 434.756 142.483C435.142 142.539 435.499 142.717 435.776 142.99C436.154 143.366 436.396 143.857 436.462 144.386L439.75 177.715L440.836 177.487L441.979 177.26L443.209 176.975C443.484 176.94 443.763 176.968 444.025 177.057C444.288 177.146 444.527 177.293 444.724 177.487C445.105 177.85 445.348 178.333 445.41 178.855C445.45 179.34 445.319 179.824 445.038 180.222C444.9 180.424 444.722 180.596 444.516 180.728C444.31 180.86 444.079 180.95 443.838 180.991L442.008 181.39L440.15 181.76L441.493 195.434H444.352C445.267 195.434 446.239 195.434 447.211 195.662C447.448 195.668 447.681 195.722 447.898 195.82C448.114 195.918 448.308 196.058 448.468 196.232C448.822 196.546 449.038 196.986 449.069 197.457C449.1 197.739 449.07 198.025 448.982 198.296C448.893 198.566 448.747 198.814 448.554 199.023C448.384 199.299 448.155 199.535 447.883 199.712C447.612 199.889 447.304 200.004 446.982 200.049Z" fill="black" stroke="black" stroke-width="0.5" stroke-miterlimit="10"/>
<path d="M502.18 124.474C502.31 124.891 502.31 125.338 502.18 125.756C502.07 126.178 501.818 126.55 501.466 126.81C500.665 127.322 499.894 127.835 499.122 128.291C498.35 128.747 497.578 129.231 496.749 129.658C498.75 133.305 500.522 136.894 502.095 140.455C503.667 144.016 504.953 147.576 506.297 151.166C508.012 156.009 509.47 160.766 510.699 165.409C511.928 170.053 513.014 174.639 513.986 179.168C514.056 179.684 513.945 180.207 513.672 180.65C513.509 180.915 513.286 181.139 513.02 181.303C512.755 181.467 512.454 181.567 512.143 181.595C511.832 181.623 511.518 181.577 511.228 181.463C510.937 181.348 510.678 181.167 510.47 180.935C509.212 179.51 507.612 177.801 505.468 175.778C503.324 173.756 501.151 171.619 498.693 169.312L490.889 162.247L482.914 155.211L475.653 148.887L469.936 143.873L483.885 186.831L486.744 186.062L489.746 185.236C490.243 185.138 490.76 185.218 491.203 185.464C491.662 185.692 492.011 186.091 492.175 186.575C492.273 186.835 492.311 187.113 492.286 187.389C492.261 187.665 492.175 187.932 492.032 188.17C491.77 188.611 491.367 188.951 490.889 189.139H490.717C488.688 189.623 486.687 190.164 484.686 190.763C482.685 191.361 480.712 191.987 478.769 192.671C476.825 193.355 474.91 194.067 473.052 194.836C471.193 195.605 469.307 196.431 467.334 197.286H467.163C466.916 197.399 466.648 197.457 466.377 197.457C466.105 197.457 465.837 197.399 465.591 197.286C465.352 197.188 465.137 197.041 464.96 196.854C464.783 196.668 464.647 196.446 464.562 196.204C464.376 195.727 464.376 195.199 464.562 194.722C464.761 194.248 465.127 193.864 465.591 193.64L468.249 192.443L471.165 191.332L455.643 144.671C453.47 145.269 451.241 145.782 448.982 146.266C448.49 146.357 447.982 146.265 447.553 146.01C447.115 145.746 446.789 145.33 446.638 144.842C446.523 144.584 446.478 144.301 446.508 144.021C446.538 143.741 446.642 143.474 446.81 143.246C447.061 142.814 447.455 142.482 447.925 142.306H448.125C450.983 141.737 453.556 141.082 456.129 140.369C458.701 139.657 461.274 138.888 463.79 138.005L466.648 137.065H466.877C467.028 137.033 467.184 137.033 467.334 137.065C467.532 137.025 467.737 137.025 467.935 137.065C468.184 137.132 468.417 137.249 468.621 137.407L470.164 138.717L473.537 141.566L478.34 145.696L484.057 150.739L490.403 156.436L496.863 162.133C499.007 164.07 501.066 165.979 503.067 167.831C505.068 169.682 506.868 171.392 508.526 173.015C507.697 169.711 506.811 166.349 505.868 162.959C504.925 159.569 503.838 156.151 502.609 152.676C501.38 149.2 499.979 145.696 498.436 142.164C496.892 138.632 495.12 135.071 493.176 131.453C492.888 131.621 492.581 131.755 492.261 131.852L491.318 132.194C489.85 132.706 488.307 133.162 486.687 133.561C486.443 133.627 486.188 133.643 485.938 133.609C485.687 133.575 485.446 133.49 485.229 133.362C484.783 133.112 484.447 132.706 484.286 132.222C484.173 131.976 484.114 131.709 484.114 131.439C484.114 131.168 484.173 130.901 484.286 130.655C484.522 130.181 484.931 129.814 485.429 129.63H485.658C486.372 129.487 487.087 129.316 487.773 129.117L489.831 128.462C491.508 127.885 493.142 127.19 494.72 126.382C496.242 125.604 497.712 124.729 499.122 123.762C499.266 123.647 499.431 123.56 499.608 123.505C499.849 123.393 500.113 123.335 500.379 123.335C500.646 123.335 500.91 123.393 501.151 123.505C501.603 123.69 501.969 124.035 502.18 124.474Z" fill="black" stroke="black" stroke-width="0.5" stroke-miterlimit="10"/>
<path d="M556.208 112.395C556.251 112.483 556.298 112.569 556.351 112.652C556.449 112.738 556.528 112.845 556.58 112.965C556.694 113.21 556.754 113.478 556.754 113.748C556.754 114.019 556.694 114.286 556.58 114.532C556.517 114.79 556.397 115.032 556.229 115.239C556.061 115.446 555.849 115.613 555.608 115.728C555.24 115.923 554.818 115.993 554.407 115.928C553.975 115.861 553.576 115.662 553.264 115.358C552.492 114.646 551.72 113.848 550.891 112.993C550.062 112.139 549.319 111.284 548.604 110.43C547.889 109.575 547.203 108.777 546.546 108.037C545.888 107.296 545.403 106.641 545.002 106.071C543.716 106.84 542.144 107.695 540.572 108.606L535.169 111.455L556.522 154.613C558.466 153.673 560.353 152.846 562.24 152.134C562.698 151.92 563.224 151.896 563.701 152.066C564.177 152.237 564.567 152.589 564.784 153.046C564.935 153.291 565.03 153.566 565.059 153.852C565.089 154.139 565.053 154.428 564.955 154.698C564.789 155.179 564.454 155.584 564.012 155.838H563.812C561.811 156.578 559.896 157.404 558.095 158.259C556.294 159.114 554.378 160.054 552.549 161.108C550.719 162.162 548.919 163.073 547.203 163.956C545.488 164.839 543.773 166.064 542.115 167.204H541.915C541.66 167.323 541.382 167.385 541.1 167.385C540.819 167.385 540.541 167.323 540.286 167.204C539.777 167.029 539.349 166.674 539.085 166.207C538.899 165.74 538.899 165.22 539.085 164.754C539.199 164.272 539.496 163.853 539.914 163.586C541.601 162.447 543.259 161.393 544.917 160.424L523.134 117.266L517.417 119.887C515.645 120.685 514.044 121.397 512.615 121.995L513.329 124.531C513.615 125.528 513.901 126.582 514.187 127.721C514.473 128.861 514.759 130.029 515.073 131.196C515.387 132.364 515.616 133.504 515.845 134.558C515.972 134.986 515.972 135.441 515.845 135.868C515.681 136.274 515.377 136.608 514.987 136.808C514.735 136.92 514.463 136.978 514.187 136.978C513.911 136.978 513.638 136.92 513.386 136.808C512.877 136.634 512.45 136.279 512.186 135.811L512.043 135.555C512.03 135.46 512.03 135.365 512.043 135.27C511.757 133.874 511.385 132.421 510.985 130.712L509.785 126.154C509.384 124.758 509.07 123.562 508.813 122.622C508.555 121.682 508.413 121.198 508.384 121.169C508.222 120.728 508.222 120.243 508.384 119.802C508.56 119.379 508.886 119.034 509.299 118.833L509.585 118.691C510.842 118.206 512.443 117.58 514.158 116.811L519.875 114.161L526.193 111.113C528.365 110.031 530.481 108.948 532.51 107.866C535.026 106.555 537.341 105.302 539.428 104.134C541.515 102.966 543.259 101.941 544.602 101.086H544.745C545.173 100.887 545.653 100.828 546.117 100.915C546.59 100.999 547.011 101.265 547.289 101.656L547.718 102.168C547.975 102.51 548.318 102.966 548.776 103.507C549.233 104.049 549.748 104.704 550.348 105.416C550.948 106.128 551.577 106.869 552.235 107.638L554.293 109.888C554.883 110.759 555.523 111.596 556.208 112.395Z" fill="black" stroke="black" stroke-width="0.5" stroke-miterlimit="10"/>
<path d="M611.464 67.8985C611.761 68.4267 611.881 69.0353 611.807 69.6362C611.713 70.0981 611.473 70.5176 611.121 70.8326C609.977 71.7442 608.834 72.5418 607.719 73.2825C606.604 74.0231 605.489 74.7638 604.346 75.419C604.746 76.53 605.404 78.2677 606.376 80.86C607.348 83.4523 608.605 86.5573 610.12 90.0612C611.635 93.5651 613.408 97.7527 615.437 102.282C617.467 106.811 619.725 111.654 622.269 116.782L623.956 120.2C625.099 119.631 626.271 119.089 627.472 118.577C628.644 118.092 629.873 117.579 631.159 117.095C631.676 116.906 632.244 116.906 632.76 117.095C633.227 117.338 633.599 117.729 633.818 118.206C633.917 118.441 633.968 118.692 633.968 118.947C633.968 119.201 633.917 119.453 633.818 119.688C633.619 120.161 633.253 120.546 632.789 120.77H632.646C631.274 121.311 629.787 121.853 628.587 122.422C627.386 122.992 625.985 123.562 624.699 124.188C623.413 124.815 622.212 125.442 621.012 126.126L617.495 128.177H617.238C616.988 128.295 616.715 128.357 616.438 128.357C616.161 128.357 615.887 128.295 615.637 128.177C615.14 128.007 614.729 127.649 614.494 127.18C614.309 126.703 614.309 126.175 614.494 125.698C614.637 125.215 614.939 124.794 615.352 124.502L617.896 123.02L620.44 121.596L618.753 118.149C616.238 113.041 613.951 108.226 611.893 103.706C610.063 104.846 608.234 105.9 606.347 106.925C604.46 107.951 602.545 108.891 600.63 109.774C598.715 110.657 596.771 111.626 594.913 112.452C593.055 113.278 591.111 114.076 589.196 114.759L597.485 132.649L600.344 131.538L603.203 130.399C603.681 130.214 604.211 130.214 604.689 130.399C605.165 130.566 605.555 130.914 605.775 131.367C605.901 131.619 605.967 131.897 605.967 132.179C605.967 132.461 605.901 132.739 605.775 132.991C605.587 133.469 605.232 133.863 604.775 134.102C602.802 134.843 600.887 135.612 599.058 136.409C597.228 137.207 595.256 138.09 593.341 139.002C591.425 139.913 589.71 140.853 587.938 141.85C586.166 142.847 584.422 143.873 582.707 144.955C582.45 145.068 582.172 145.125 581.892 145.125C581.611 145.125 581.334 145.068 581.077 144.955C580.584 144.778 580.176 144.422 579.934 143.958C579.748 143.492 579.748 142.972 579.934 142.505C580.061 142.015 580.367 141.589 580.791 141.309L583.307 139.799L585.822 138.318L564.326 94.4767C562.239 95.3313 560.095 96.1289 557.923 96.8411C557.455 97.0266 556.933 97.0266 556.465 96.8411C556.037 96.6457 555.685 96.3154 555.464 95.901C555.324 95.6378 555.251 95.3444 555.251 95.0464C555.251 94.7484 555.324 94.455 555.464 94.1918C555.652 93.7221 555.995 93.3302 556.436 93.0808H556.636C559.323 92.2262 561.896 91.3146 564.383 90.2321C566.87 89.1496 569.3 88.0957 571.673 86.9277C573.13 86.2155 574.531 85.5033 575.932 84.7627C577.332 84.022 578.79 83.2529 579.991 82.4268C580.469 82.2422 580.999 82.2422 581.477 82.4268C581.966 82.5473 582.387 82.8542 582.649 83.2814C582.92 83.7882 582.991 84.3772 582.85 84.9336C582.689 85.4241 582.367 85.8459 581.935 86.1301L579.419 87.6113L576.847 89.0927L587.28 111.711C589.11 111.056 590.996 110.344 592.997 109.489C594.998 108.635 596.799 107.78 598.715 106.868C600.63 105.957 602.602 104.903 604.432 104.02C606.261 103.137 608.205 101.912 610.149 100.772C608.891 97.9236 607.748 95.3883 606.747 92.9384C605.747 90.4885 604.832 88.3235 604.06 86.3295C603.288 84.3354 602.602 82.6546 602.031 81.2018C601.459 79.749 601.059 78.6095 600.744 77.7264L597.886 78.9229C596.952 79.2915 595.998 79.6054 595.027 79.8629C594.805 79.9546 594.567 80.0018 594.327 80.0018C594.086 80.0018 593.848 79.9546 593.626 79.8629C593.176 79.6758 592.81 79.3314 592.597 78.8944C592.471 78.6372 592.405 78.3546 592.405 78.0683C592.405 77.7819 592.471 77.4994 592.597 77.2421C592.786 76.7805 593.13 76.3982 593.569 76.1597H593.855C594.83 75.8939 595.785 75.5607 596.714 75.1626C597.686 74.7828 598.638 74.3555 599.572 73.8807C601.085 73.1269 602.555 72.29 603.974 71.3739C605.513 70.378 606.993 69.2936 608.405 68.1264L608.834 67.9269C609.244 67.7035 609.724 67.6425 610.178 67.756C610.611 67.6757 611.059 67.7253 611.464 67.8985Z" fill="black" stroke="black" stroke-width="0.5" stroke-miterlimit="10"/>
<path d="M673.438 84.5347C674.249 86.9232 674.693 89.4204 674.753 91.9413C674.798 94.1184 674.509 96.2895 673.895 98.3793C673.336 100.314 672.477 102.149 671.351 103.82C670.232 105.437 668.916 106.911 667.435 108.207C665.988 109.506 664.396 110.634 662.69 111.569C660.993 112.493 659.213 113.256 657.373 113.848C655.18 114.569 652.878 114.906 650.569 114.845C648.407 114.798 646.273 114.343 644.28 113.506C642.303 112.64 640.53 111.368 639.078 109.774C637.494 108 636.322 105.899 635.648 103.621C635.447 102.994 635.276 102.367 635.105 101.684C634.942 100.98 634.827 100.266 634.761 99.5473C634.713 99.312 634.714 99.0694 634.763 98.8342C634.812 98.5991 634.909 98.3765 635.047 98.1799C635.296 97.7754 635.681 97.4724 636.134 97.3253C636.404 97.2232 636.695 97.1855 636.983 97.2151C637.271 97.2448 637.548 97.341 637.792 97.4962C638.226 97.7382 638.553 98.1351 638.706 98.6072C638.72 98.673 638.72 98.7409 638.706 98.8066C638.695 98.8726 638.695 98.9401 638.706 99.006L639.049 100.772C639.162 101.349 639.305 101.92 639.478 102.481C639.929 103.933 640.635 105.293 641.565 106.498C642.429 107.632 643.495 108.598 644.709 109.347C645.932 110.039 647.284 110.476 648.683 110.629C650.207 110.761 651.743 110.586 653.199 110.116C654.892 109.572 656.492 108.774 657.944 107.752C659.343 106.745 660.488 105.428 661.289 103.906C662.148 102.226 662.626 100.378 662.69 98.4933C662.729 96.0803 662.342 93.6793 661.546 91.4001C661.117 89.9168 660.398 88.5325 659.431 87.3265C658.572 86.2083 657.528 85.2448 656.344 84.4778C655.175 83.7435 653.903 83.1867 652.57 82.8255C651.243 82.4688 649.883 82.2492 648.511 82.1703C647.19 82.0419 645.859 82.0419 644.538 82.1703C643.327 82.3239 642.131 82.5812 640.965 82.9395L640.164 83.1674C639.908 83.2691 639.631 83.3067 639.357 83.2769C639.083 83.2472 638.82 83.1508 638.592 82.9965C638.146 82.76 637.809 82.3624 637.649 81.8855C637.543 81.6005 637.506 81.2947 637.541 80.9928C637.575 80.691 637.681 80.4015 637.849 80.1478L651.713 58.8396L628.387 66.3886C628.135 66.5019 627.862 66.5605 627.586 66.5605C627.31 66.5605 627.038 66.5019 626.786 66.3886C626.553 66.2765 626.347 66.1172 626.179 65.921C626.012 65.7248 625.888 65.496 625.814 65.2492C625.6 64.729 625.6 64.1456 625.814 63.6254C626.073 63.1361 626.514 62.7678 627.043 62.5999L655.629 53.5696C655.894 53.4828 656.175 53.4557 656.452 53.4901C656.729 53.5246 656.994 53.6199 657.23 53.769C657.473 53.8823 657.69 54.0446 657.867 54.2456C658.044 54.4466 658.178 54.682 658.259 54.9369C658.347 55.2166 658.372 55.5122 658.333 55.8027C658.293 56.0933 658.19 56.3715 658.03 56.6177L649.312 69.4937C650.769 69.4937 652.17 69.3512 653.828 69.4937C655.389 69.5481 656.94 69.7581 658.459 70.1204C660.032 70.4722 661.557 71.0076 663.004 71.7157C664.526 72.4591 665.932 73.4186 667.178 74.5643C668.565 75.8132 669.768 77.2519 670.751 78.8374C671.881 80.6174 672.784 82.5314 673.438 84.5347Z" fill="black" stroke="black" stroke-width="0.5" stroke-miterlimit="10"/>
<path d="M739.871 83.3388C739.871 83.3388 739.871 83.5097 739.871 83.7376C739.895 84.06 739.895 84.3837 739.871 84.7062C739.996 86.6855 739.773 88.6712 739.214 90.5744C738.706 92.2988 737.861 93.9059 736.727 95.3032C735.602 96.6647 734.199 97.7718 732.611 98.5507C730.886 99.3779 729.006 99.8341 727.094 99.8896C725.378 99.9521 723.665 99.711 722.034 99.1774C719.22 98.2768 716.819 96.409 715.259 93.9074C714.454 92.6454 713.793 91.2983 713.287 89.8907C712.762 88.4185 712.37 86.9027 712.115 85.3614C711.835 83.8074 711.654 82.2376 711.571 80.661C711.571 80.2052 711.571 79.7494 711.571 79.2936C711.571 78.8379 711.571 78.4106 711.571 78.0687C710.409 78.0687 709.266 78.0687 708.141 78.0687L704.911 77.8408L705.311 98.0095C705.34 98.2813 705.306 98.5561 705.212 98.8128C705.118 99.0695 704.966 99.3014 704.768 99.4908C704.382 99.8586 703.873 100.072 703.339 100.089H701.738L697.793 100.374C696.192 100.374 694.391 100.687 692.448 100.915C690.504 101.143 688.617 101.399 686.73 101.713H686.473C686.197 101.736 685.918 101.699 685.657 101.606C685.396 101.512 685.157 101.364 684.958 101.172C684.764 101.006 684.607 100.8 684.499 100.57C684.391 100.339 684.333 100.088 684.329 99.8327C684.297 99.3353 684.439 98.8423 684.729 98.4368C685.039 98.0343 685.487 97.7603 685.987 97.6676L688.846 97.2119L691.704 96.8415L690.332 48.8982C688.417 49.297 686.988 49.6389 686.016 49.9238L684.444 50.351C684.297 50.4732 684.118 50.5521 683.929 50.5789C683.377 50.5946 682.842 50.3949 682.436 50.0223C682.03 49.6498 681.786 49.134 681.757 48.5849C681.727 48.1536 681.837 47.7243 682.071 47.36C682.335 47.013 682.692 46.7465 683.1 46.5908L684.729 46.0495C686.192 45.5903 687.681 45.2193 689.189 44.9386C691.161 44.5397 693.62 44.1124 696.564 43.7136C699.508 43.3148 702.967 43.0299 706.941 42.8305C709.485 42.8305 711.972 42.8305 714.373 43.0014C716.644 43.1074 718.907 43.3548 721.148 43.7421C723.147 44.1021 725.109 44.6456 727.008 45.3658C728.723 46.0237 730.302 46.9892 731.667 48.2145C733.027 49.4236 734.109 50.9101 734.84 52.573C735.661 54.5241 736.107 56.6112 736.155 58.7262C736.262 60.5418 736.059 62.3623 735.555 64.1102C734.622 67.4977 732.617 70.4948 729.838 72.6562C728.39 73.7203 726.803 74.5829 725.121 75.2201C725.121 75.8183 725.121 76.445 725.121 77.0717C725.121 77.6984 725.121 78.3251 725.121 78.9803C725.121 79.6355 725.121 80.2907 725.264 81.2592C725.407 82.2278 725.464 83.3103 725.636 84.4783C725.788 85.6765 726.008 86.8653 726.293 88.0391C726.547 89.1604 726.901 90.2568 727.351 91.3151C727.709 92.203 728.232 93.015 728.894 93.708C729.169 93.9876 729.499 94.2078 729.863 94.3548C730.227 94.5018 730.617 94.5726 731.01 94.5626C731.49 94.5497 731.962 94.4365 732.395 94.2304C732.828 94.0243 733.213 93.7299 733.525 93.3661C734.201 92.602 734.716 91.7109 735.04 90.7454C735.406 89.7322 735.656 88.6809 735.784 87.6118C735.848 86.7204 735.848 85.8255 735.784 84.934C735.805 84.6971 735.805 84.4588 735.784 84.2219C735.77 84.0512 735.77 83.8797 735.784 83.7091C735.761 83.4395 735.801 83.1683 735.9 82.9164C735.999 82.6645 736.155 82.4386 736.355 82.2563C736.72 81.8698 737.219 81.6368 737.751 81.6051C738.282 81.5733 738.805 81.7451 739.214 82.0853C739.573 82.4138 739.806 82.8572 739.871 83.3388ZM732.182 59.0395C732.14 57.4037 731.761 55.7939 731.067 54.3107C730.417 53.0071 729.502 51.8526 728.38 50.9208C727.18 49.9558 725.827 49.1953 724.378 48.6703C722.747 48.0796 721.062 47.6502 719.347 47.3884C717.455 47.0955 715.544 46.9337 713.63 46.9042C711.571 46.9042 709.456 46.9042 707.312 46.9042H705.683C705.217 46.8577 704.748 46.8577 704.282 46.9042L704.854 73.3969C705.934 73.5457 707.022 73.6313 708.113 73.6533C709.285 73.6533 710.514 73.6533 711.772 73.6533C713.029 73.6533 714.887 73.3969 716.517 73.1405C718.133 72.885 719.728 72.5137 721.291 72.0295C722.801 71.5311 724.264 70.902 725.664 70.1494C727.001 69.3972 728.208 68.4354 729.237 67.3007C730.249 66.2161 731.045 64.9497 731.582 63.5689C732.037 62.1048 732.212 60.5681 732.096 59.0395H732.182Z" fill="black" stroke="black" stroke-width="0.5" stroke-miterlimit="10"/>
</svg>
